<?xml version="1.0" encoding="iso-8859-1"?>
<!-- Uploaded to: SVG Repo, www.svgrepo.com, Generator: SVG Repo Mixer Tools -->
<!DOCTYPE svg PUBLIC "-//W3C//DTD SVG 1.1//EN" "http://www.w3.org/Graphics/SVG/1.1/DTD/svg11.dtd">
<svg xmlns="http://www.w3.org/2000/svg" xmlns:xlink="http://www.w3.org/1999/xlink" version="1.1" id="Layer_1"  width="512" height="512" viewBox="0 0 470 470" xml:space="preserve">
<g>
	<g>
		<circle style="fill:#A8A2A2;" cx="235" cy="235" r="227.5"/>
		<circle style="fill:#8C8484;" cx="235" cy="235" r="202.5"/>
		<path style="fill:#A8A2A2;" d="M235,98.5c-75.387,0-136.5,61.113-136.5,136.5S159.613,371.5,235,371.5S371.5,310.387,371.5,235    S310.387,98.5,235,98.5z M235,293.311c-32.204,0-58.311-26.106-58.311-58.311s26.106-58.311,58.311-58.311    s58.311,26.106,58.311,58.311S267.204,293.311,235,293.311z"/>
		<polygon style="fill:#EBEAEA;" points="264.239,306.629 264.239,131.498 205.68,131.498 185.667,141.954 185.667,162.317     205.761,162.317 205.761,306.629 185.667,311.13 185.667,330.502 284.333,330.502 284.333,311.13   "/>
	</g>
	<path d="M235,91c-79.402,0-144,64.598-144,144s64.598,144,144,144s144-64.598,144-144S314.402,91,235,91z M235,364   c-71.131,0-129-57.869-129-129s57.869-129,129-129s129,57.869,129,129S306.131,364,235,364z M401.17,68.83   C356.785,24.444,297.771,0,235,0S113.215,24.444,68.83,68.83C24.444,113.215,0,172.229,0,235c0,62.771,24.444,121.785,68.83,166.17   C113.215,445.556,172.229,470,235,470s121.785-24.444,166.17-68.83C445.556,356.785,470,297.771,470,235   C470,172.229,445.556,113.215,401.17,68.83z M235,455c-121.309,0-220-98.691-220-220S113.691,15,235,15s220,98.691,220,220   S356.309,455,235,455z M300.811,235c0-21.887-11.036-42.417-29.072-54.587v-48.915c0-4.142-3.358-7.5-7.5-7.5H205.68   c-1.209,0-2.401,0.292-3.473,0.853l-20.013,10.456c-2.476,1.293-4.027,3.854-4.027,6.647v20.363c0,4.142,3.358,7.5,7.5,7.5h12.595   v10.596c-18.036,12.17-29.072,32.7-29.072,54.587s11.036,42.417,29.072,54.587v11.036l-14.234,3.188   c-3.426,0.768-5.861,3.808-5.861,7.319v19.372c0,4.142,3.358,7.5,7.5,7.5h98.667c4.142,0,7.5-3.358,7.5-7.5V311.13   c0-3.511-2.435-6.551-5.861-7.319l-14.234-3.188v-11.036C289.775,277.417,300.811,256.887,300.811,235z M285.811,235   c0,13.174-5.186,25.708-14.072,35.049v-70.099C280.625,209.292,285.811,221.826,285.811,235z M184.189,235   c0-13.174,5.186-25.708,14.072-35.049v70.099C189.375,260.708,184.189,248.174,184.189,235z M276.833,317.136v5.866h-83.667v-5.866   l14.234-3.188c3.426-0.768,5.861-3.808,5.861-7.319V162.317c0-4.142-3.358-7.5-7.5-7.5h-12.595v-8.32l14.354-7.499h49.218v167.631   c0,3.511,2.435,6.551,5.861,7.319L276.833,317.136z M375.269,330.479c3.315,2.482,3.991,7.183,1.509,10.498   c-10.17,13.585-22.215,25.63-35.8,35.8c-1.348,1.009-2.925,1.497-4.489,1.497c-2.283,0-4.537-1.038-6.01-3.005   c-2.482-3.316-1.807-8.017,1.509-10.499c12.44-9.313,23.469-20.342,32.782-32.782C367.252,328.672,371.952,327.997,375.269,330.479   z M308.746,387.835c1.635,3.806-0.124,8.217-3.93,9.852c-15.58,6.694-32.046,11.096-48.94,13.082   c-0.297,0.035-0.593,0.052-0.885,0.052c-3.751,0-6.991-2.808-7.439-6.625c-0.483-4.114,2.459-7.84,6.573-8.324   c15.457-1.817,30.52-5.843,44.77-11.966C302.7,382.27,307.111,384.029,308.746,387.835z M138.012,364.77   c3.315,2.482,3.991,7.183,1.509,10.499c-1.473,1.967-3.728,3.005-6.01,3.005c-1.564,0-3.141-0.487-4.489-1.497   c-13.585-10.17-25.63-22.215-35.8-35.8c-2.482-3.315-1.807-8.016,1.509-10.498c3.316-2.483,8.017-1.806,10.499,1.508   C114.543,344.428,125.572,355.457,138.012,364.77z M215.875,395.871c4.114,0.484,7.057,4.21,6.573,8.324   c-0.449,3.816-3.689,6.625-7.439,6.625c-0.292,0-0.587-0.017-0.885-0.052c-16.895-1.986-33.36-6.388-48.94-13.082   c-3.806-1.635-5.565-6.046-3.93-9.852c1.635-3.806,6.047-5.565,9.852-3.93C185.356,390.028,200.419,394.054,215.875,395.871z    M445,235c0,115.794-94.206,210-210,210S25,350.794,25,235c0-50.331,18.083-99.016,50.919-137.087   c2.705-3.137,7.441-3.487,10.578-0.781c3.137,2.705,3.486,7.441,0.781,10.578C56.791,143.059,40,188.264,40,235   c0,107.523,87.477,195,195,195s195-87.477,195-195S342.523,40,235,40c-46.736,0-91.941,16.791-127.29,47.278   c-3.137,2.706-7.874,2.355-10.578-0.781c-2.706-3.137-2.356-7.873,0.781-10.578C135.984,43.083,184.669,25,235,25   C350.794,25,445,119.206,445,235z"/>
</g>















</svg>